<svg width="24" height="24" viewBox="0 0 24 24" fill="none" xmlns="http://www.w3.org/2000/svg">
<path d="M18 3C18.7956 3 19.5585 3.3163 20.1211 3.87891C20.6837 4.44152 21 5.20435 21 6V18C21 18.7957 20.6837 19.5585 20.1211 20.1211C19.5585 20.6837 18.7957 21 18 21H6C5.20435 21 4.44152 20.6837 3.87891 20.1211C3.3163 19.5585 3 18.7956 3 18V6C3 5.20435 3.3163 4.44152 3.87891 3.87891C4.44152 3.3163 5.20435 3 6 3H18ZM5 18C5 18.2652 5.10543 18.5195 5.29297 18.707C5.48051 18.8946 5.73478 19 6 19H7V17H5V18ZM9 19H15V13H9V19ZM17 17V19H18C18.2652 19 18.5195 18.8946 18.707 18.707C18.8946 18.5195 19 18.2652 19 18V17H17ZM17 15H19V13H17V15ZM5 15H7V13H5V15ZM5 11H7V9H5V11ZM9 11H15V5H9V11ZM17 11H19V9H17V11ZM6 5C5.73478 5 5.4805 5.10543 5.29297 5.29297C5.10543 5.4805 5 5.73478 5 6V7H7V5H6ZM17 7H19V6C19 5.73478 18.8946 5.48051 18.707 5.29297C18.5195 5.10543 18.2652 5 18 5H17V7Z" fill="#FBFBFB"/>
</svg>