<svg width="24" height="24" viewBox="0 0 24 24" fill="none" xmlns="http://www.w3.org/2000/svg">
<path d="M15.293 2.29297C15.6835 1.90244 16.3165 1.90244 16.707 2.29297C17.0974 2.6835 17.0975 3.31654 16.707 3.70703L14.4141 6H19C19.7957 6 20.5585 6.3163 21.1211 6.87891C21.6837 7.44151 22 8.20437 22 9V18C22 18.7956 21.6837 19.5585 21.1211 20.1211C20.5585 20.6837 19.7956 21 19 21H5C4.20437 21 3.44151 20.6837 2.87891 20.1211C2.31631 19.5585 2.00002 18.7956 2 18V9C2 8.20437 2.31632 7.44151 2.87891 6.87891C3.44152 6.3163 4.20435 6 5 6H9.58594L7.29297 3.70703C6.90246 3.31652 6.90248 2.6835 7.29297 2.29297C7.68349 1.90244 8.31651 1.90244 8.70703 2.29297L12 5.58594L15.293 2.29297ZM5 8C4.73478 8 4.4805 8.10543 4.29297 8.29297C4.10546 8.4805 4 8.7348 4 9V18C4.00002 18.2652 4.10545 18.5195 4.29297 18.707C4.4805 18.8945 4.7348 19 5 19H14V8H5ZM16 19H19C19.2652 19 19.5195 18.8945 19.707 18.707C19.8946 18.5195 20 18.2652 20 18V9C20 8.7348 19.8945 8.4805 19.707 8.29297C19.5195 8.10543 19.2652 8 19 8H16V19ZM18 14C18.5523 14 19 14.4477 19 15V15.0098C19 15.562 18.5523 16.0098 18 16.0098C17.4477 16.0098 17 15.562 17 15.0098V15C17 14.4477 17.4477 14 18 14ZM18 11C18.5523 11 19 11.4477 19 12V12.0098C19 12.562 18.5523 13.0098 18 13.0098C17.4477 13.0098 17 12.562 17 12.0098V12C17 11.4477 17.4477 11 18 11Z" fill="#FBFBFB"/>
</svg>
