<svg width="24" height="24" viewBox="0 0 24 24" fill="none" xmlns="http://www.w3.org/2000/svg">
<path d="M9 13C9.53043 13 10.039 13.2109 10.4141 13.5859C10.7891 13.961 11 14.4696 11 15V19C11 19.5304 10.7891 20.039 10.4141 20.4141C10.039 20.7891 9.53043 21 9 21H5C4.46957 21 3.96101 20.7891 3.58594 20.4141C3.21086 20.039 3 19.5304 3 19V15C3 14.4696 3.21087 13.961 3.58594 13.5859C3.96101 13.2109 4.46957 13 5 13H9ZM17 13C18.0609 13 19.078 13.4217 19.8281 14.1719C20.5783 14.922 21 15.9391 21 17C21 18.0609 20.5783 19.078 19.8281 19.8281C19.078 20.5783 18.0609 21 17 21C15.9391 21 14.922 20.5783 14.1719 19.8281C13.4217 19.078 13 18.0609 13 17C13 15.9391 13.4217 14.922 14.1719 14.1719C14.922 13.4217 15.9391 13 17 13ZM5 19H9V15H5V19ZM17 15C16.4696 15 15.961 15.2109 15.5859 15.5859C15.2109 15.961 15 16.4696 15 17C15 17.5304 15.2109 18.039 15.5859 18.4141C15.961 18.7891 16.4696 19 17 19C17.5304 19 18.039 18.7891 18.4141 18.4141C18.7891 18.039 19 17.5304 19 17C19 16.4696 18.7891 15.961 18.4141 15.5859C18.039 15.2109 17.5304 15 17 15ZM12 2C12.3588 2 12.6901 2.19235 12.8682 2.50391L16.8682 9.50391C17.045 9.81337 17.0441 10.1937 16.8652 10.502C16.6863 10.8102 16.3565 11 16 11H8C7.64356 11 7.31367 10.8102 7.13477 10.502C6.95594 10.1937 6.95503 9.81335 7.13184 9.50391L11.1318 2.50391L11.2051 2.39258C11.3927 2.14702 11.686 2.00003 12 2ZM9.72266 9H14.2773L12 5.01465L9.72266 9Z" fill="currentColor"/>
</svg>
