<svg width="24" height="24" viewBox="0 0 24 24" fill="none" xmlns="http://www.w3.org/2000/svg">
<path d="M17 7V18C17 18.2652 17.1054 18.5195 17.293 18.707C17.4805 18.8946 17.7348 19 18 19C18.2652 19 18.5195 18.8946 18.707 18.707C18.8946 18.5195 19 18.2652 19 18V7H17ZM5 5V17C5 17.5304 5.21086 18.039 5.58594 18.4141C5.96101 18.7891 6.46957 19 7 19H15.1758C15.0956 18.7735 15.0387 18.5384 15.0146 18.2969L15 18V5H5ZM19 5C19.5304 5 20.039 5.21086 20.4141 5.58594C20.7891 5.96101 21 6.46957 21 7V18C21 18.7957 20.6837 19.5585 20.1211 20.1211C19.5585 20.6837 18.7957 21 18 21H7C5.93913 21 4.92202 20.5783 4.17188 19.8281C3.42173 19.078 3 18.0609 3 17V5C3 4.46957 3.21087 3.96101 3.58594 3.58594C3.96101 3.21087 4.46957 3 5 3H15C15.5304 3 16.039 3.21087 16.4141 3.58594C16.7891 3.96101 17 4.46957 17 5H19Z" fill="#FBFBFB"/>
<path d="M12 7C12.5523 7 13 7.44772 13 8C13 8.55228 12.5523 9 12 9H8C7.44772 9 7 8.55228 7 8C7 7.44772 7.44772 7 8 7H12Z" fill="#FBFBFB"/>
<path d="M12 11C12.5523 11 13 11.4477 13 12C13 12.5523 12.5523 13 12 13H8C7.44772 13 7 12.5523 7 12C7 11.4477 7.44772 11 8 11H12Z" fill="#FBFBFB"/>
<path d="M12 15C12.5523 15 13 15.4477 13 16C13 16.5523 12.5523 17 12 17H8C7.44772 17 7 16.5523 7 16C7 15.4477 7.44772 15 8 15H12Z" fill="#FBFBFB"/>
</svg>
